<svg xmlns="http://www.w3.org/2000/svg" width="29.653" height="35.208" viewBox="0 0 29.653 35.208"><path d="M804.338,3925.787a1.309,1.309,0,0,1-1.315-1.3v-.009a1.333,1.333,0,0,1,1.331-1.322,1.305,1.305,0,0,1,1.312,1.3v.011a1.321,1.321,0,0,1-1.321,1.322Zm-4.9-.517a1.711,1.711,0,0,1-1.1-.644,1.6,1.6,0,0,1-.306-1.232l2.012-10.749a1.677,1.677,0,0,1,1.857-1.383l3.736.625s.693-3.743.717-3.8a1.307,1.307,0,0,1-.62-1.507s1.4-4.473,1.592-4.664c0,0,6.54-4.418,7.342-4.665a5.354,5.354,0,0,1,5.455,1.665l3.013,4.721,3.47.8a1.341,1.341,0,0,1,1.028,1.591v.021a1.351,1.351,0,0,1-1.307,1.041,1.506,1.506,0,0,1-.285-.019s-4.3-1.028-4.434-1.1a1.645,1.645,0,0,1-.455-.44l-1.656-2.61-1.174,6.143c2.238,5.194,5.783,13.4,5.783,13.4a1.637,1.637,0,0,1-.909,2.1h-.021a1.714,1.714,0,0,1-.608.114,1.654,1.654,0,0,1-1.517-1.006l-3.865-8.663-.587,3.11-.821,5.345a1.615,1.615,0,0,1-1.593,1.367h-.242l-.04-.021a1.636,1.636,0,0,1-1.364-1.84l1.989-13c-.813-.57-1.95-1.555-1.817-2.6l.776-5.913-4.095,2.5-1.269,4.733-2.522,14.287a1.886,1.886,0,0,0-1.31-.511,1.951,1.951,0,0,0-1.5,3.2Zm16.1-31.917a2.8,2.8,0,1,1,0,.015Z" transform="translate(-798.011 -3890.579)"/></svg>