<svg height="27.843" viewBox="0 0 130.812 27.843" width="130.812" xmlns="http://www.w3.org/2000/svg"><g transform="translate(-1170.795 -3894.262)"><path d="m1217.026 3922.1v-27.843h.229v27.843z"/><path d="m1205.906 3905.334a3.027 3.027 0 0 0 -2.133-.88c-.721 0-1.624.247-1.624 1.165 0 .77.69 1.03 1.789 1.376 1.573.509 3.606 1.165 3.606 3.477 0 2.672-2.148 3.869-4.443 3.869a6.123 6.123 0 0 1 -4.345-1.673l1.719-1.764a3.68 3.68 0 0 0 2.626 1.125c.852 0 1.607-.329 1.607-1.263 0-.885-.886-1.181-2.411-1.675-1.474-.475-2.966-1.211-2.966-3.308 0-2.574 2.327-3.64 4.491-3.64a5.812 5.812 0 0 1 3.8 1.426zm-27.437 4.187h-2.917l1.474-3.984zm4.786 4.524-4.747-11.608h-2.793l-4.92 11.608h3.1l.851-2.278h4.494l.9 2.278zm9.961-11.608h-3.1l-2.689 8.389-2.737-8.389h-3.147l4.393 11.608h2.8zm1.123 11.608h2.82v-11.608h-2.82zm14.434-10.62a.994.994 0 1 0 .99-.988.98.98 0 0 0 -.99.988zm.158 0a.836.836 0 1 1 .832.837.835.835 0 0 1 -.832-.837zm.448.554h.2v-.466h.146l.258.466h.244l-.3-.488a.3.3 0 0 0 .258-.3c0-.24-.206-.327-.42-.327h-.386zm.2-.628v-.318h.181c.1 0 .223.03.223.152s-.13.166-.247.166z"/><path d="m1236.03 3914.115h7.773v-11.524z"/><path d="m1226.383 3902.406v11.709l17.42-11.709z"/><path d="m1300.366 3902.852a1.231 1.231 0 1 1 -1.242 1.236 1.237 1.237 0 0 1 1.242-1.236zm0 2.282a1.046 1.046 0 1 0 -1.046-1.046 1.05 1.05 0 0 0 1.046 1.046zm-.485-1.749h.49c.261 0 .518.109.518.409a.372.372 0 0 1 -.322.376l.375.609h-.305l-.326-.582h-.18v.582h-.25zm.452.61c.141 0 .3-.038.3-.207 0-.152-.146-.19-.277-.19h-.229v.4zm-3 8.425c-.977 0-1.431-.477-1.431-1.5v-3.927h1.878v-1.7h-1.878v-2.432h-1.922v8.06c0 2.04 1.168 3.261 3.051 3.261a6.282 6.282 0 0 0 .781-.056v-1.726c-.238.017-.375.02-.476.02zm-5.531-6.1a4.108 4.108 0 0 0 -3.03-1.232 4.392 4.392 0 0 0 -4.308 4.56 4.331 4.331 0 0 0 4.353 4.526 4.563 4.563 0 0 0 3.49-1.739l-1.5-1.052a2.594 2.594 0 0 1 -1.99 1.035 2.418 2.418 0 0 1 -2.331-2h6.447a4.646 4.646 0 0 0 -1.128-4.094zm-5.3 2.5a2.383 2.383 0 0 1 2.272-1.975 2.355 2.355 0 0 1 2.251 1.975zm-4.933-3.534v.794a3.7 3.7 0 0 0 -2.542-.992 4.547 4.547 0 0 0 0 9.088 3.734 3.734 0 0 0 2.494-.952s.389 3.324-2.542 3.324a3.019 3.019 0 0 1 -2.5-1.556l-1.537 1.08a4.841 4.841 0 0 0 7.073 1.261 4.408 4.408 0 0 0 1.439-3.5v-8.548zm-2.542 7.118a2.792 2.792 0 0 1 0-5.547 2.789 2.789 0 0 1 0 5.547zm-9.876 1.771a4.546 4.546 0 0 1 0-9.087 3.738 3.738 0 0 1 2.495.952v-3.638h1.922v11.598h-1.868v-.811a3.7 3.7 0 0 1 -2.546.989zm0-7.3a2.786 2.786 0 0 0 0 5.535 2.782 2.782 0 0 0 0-5.535zm-5.347 2.909v-4.494h-1.923v4.494c0 1.6-.818 2.629-2.1 2.629s-2.094-1.032-2.094-2.629v-4.494h-1.927v4.494a4.037 4.037 0 1 0 8.042 0zm-17.072 4.332v-11.71h4.063c1.581 0 3.492.833 3.492 3.035a2.782 2.782 0 0 1 -1.17 2.473 2.879 2.879 0 0 1 1.782 2.822c0 1.872-1.544 3.38-4 3.38zm3.944-1.756a3.247 3.247 0 0 0 1.206-.183 1.676 1.676 0 0 0 0-3.085 3.207 3.207 0 0 0 -1.36-.2h-1.833v3.467zm-.317-5.143a3.359 3.359 0 0 0 1.259-.182 1.362 1.362 0 0 0 .669-1.376 1.4 1.4 0 0 0 -.789-1.3 2.6 2.6 0 0 0 -1.186-.2h-1.624v3.058z"/></g></svg>