<svg height="35.053" viewBox="0 0 36.418 35.053" width="36.418" xmlns="http://www.w3.org/2000/svg"><g transform="translate(-612.978 -3890.657)"><path d="m622.483 3898.1a3.724 3.724 0 1 0 -3.732-3.714 3.73 3.73 0 0 0 3.732 3.714z"/><path d="m622.465 3899.015a5.713 5.713 0 0 0 -5.845 5.554v1.748a.925.925 0 0 0 .91.91h9.888a.913.913 0 0 0 .91-.91v-1.748a5.717 5.717 0 0 0 -5.863-5.554z"/><path d="m613.888 3908.83h16.9l-1.984 5.462h-15.826v-4.552a.913.913 0 0 1 .91-.91z"/><path d="m649.4 3909.74v4.552h-2.013l-1.985-5.462h3.088a.925.925 0 0 1 .91.91z"/><path d="m629.293 3918.025h4.074v7.685h-19.479a.913.913 0 0 1 -.91-.911v-8.686h15.332l-.127.328a1.088 1.088 0 0 0 .127 1.075 1.163 1.163 0 0 0 .983.509z"/><path d="m649.4 3916.113v8.686a.925.925 0 0 1 -.91.911h-5.66v-7.685h4.07a1.209 1.209 0 0 0 .983-.509 1.255 1.255 0 0 0 .146-1.075l-.128-.328z"/><path d="m638.088 3900.708a3.724 3.724 0 1 0 -3.714-3.733 3.722 3.722 0 0 0 3.714 3.733z"/><path d="m645.7 3914.984-3.405-9.341v-.018l-.619-1.676a3.953 3.953 0 0 0 -7.193.073l-3.988 10.962a.833.833 0 0 0 .109.82.871.871 0 0 0 .748.4h3.841v8.595a.914.914 0 0 0 .911.911.925.925 0 0 0 .91-.911v-8.599h2.167v8.595a.91.91 0 1 0 1.821 0v-8.595h3.842a.918.918 0 0 0 .747-.4.937.937 0 0 0 .109-.816z"/></g></svg>