<svg height="28.067" viewBox="0 0 96.874 28.067" width="96.874" xmlns="http://www.w3.org/2000/svg"><g transform="translate(-984.275 -3896.967)"><path d="m1048.884 3922.532h13.225v2.201h-13.225z"/><path d="m1074.257 3909.672-4.373 6.235-4.373-6.235h-3l6.059 8.572v6.489h2.632v-6.489l.008-.01 6.052-8.562z"/><path d="m994.98 3916.913-.208-.156.18-.183a3.917 3.917 0 0 0 1.125-2.708 4.505 4.505 0 0 0 -4.747-4.2h-7.055v15.061h7.458c2.769 0 5.021-1.991 5.021-4.436a4.24 4.24 0 0 0 -1.774-3.384m-8.081-5.039h4.431a2 2 0 1 1 0 3.983h-4.43zm4.834 10.663h-4.833v-4.473h4.834a2.251 2.251 0 1 1 0 4.473"/><path d="m1040.69 3919.719-4.354-10.047h-2.9l6.645 15.061h1.215l6.645-15.061h-2.9z"/><path d="m1007.25 3909.371a7.831 7.831 0 1 0 7.833 7.831 7.832 7.832 0 0 0 -7.833-7.831zm0 13.084a5.253 5.253 0 1 1 5.251-5.254 5.259 5.259 0 0 1 -5.251 5.254z"/><path d="m1028.076 3919.383-8.549-9.711h-1.312v15.061h2.629v-9.709l8.549 9.709h1.31v-15.061h-2.627z"/><path d="m1055.5 3909.371a5.253 5.253 0 1 0 5.252 5.253 5.259 5.259 0 0 0 -5.252-5.253zm0 8.28a3.023 3.023 0 1 1 3.023-3.024 3.024 3.024 0 0 1 -3.023 3.024z"/><path d="m998.51 3899.556v5.095h-1.4v-7.534h1.572l2.321 4.171 2.322-4.171h1.572v7.534h-1.4v-5.095l-1.984 3.647h-1.011z"/><path d="m1058.575 3897.119v1.3h2.222v6.236h1.4v-6.236h2.222v-1.3z"/><path d="m1050.443 3897.117v1.3h2.221v6.236h1.4v-6.236h2.222v-1.3z"/><path d="m1036.438 3897.117h1.404v7.532h-1.404z"/><path d="m1019.136 3901.6h1.154l2.107 3.053h1.61l-2.128-3.083a2.343 2.343 0 0 0 2.128-2.211 2.4 2.4 0 0 0 -2.531-2.242h-3.744v7.534h1.4zm0-3.292h2.33a1.125 1.125 0 0 1 1.186 1.05 1.127 1.127 0 0 1 -1.186 1.05h-2.33z"/><path d="m1011.411 3899.63 1.1 2.363h-2.183zm-.336-2.52-3.489 7.532h1.5l.672-1.446h3.308l.672 1.446h1.512l-3.489-7.532z"/><path d="m1030.7 3897.115h-3.729v7.534h1.4v-3.049h1.149l2.107 3.053h1.61l-2.128-3.083a2.343 2.343 0 0 0 2.128-2.211 2.4 2.4 0 0 0 -2.531-2.242m1.183 2.246a1.127 1.127 0 0 1 -1.186 1.05h-2.332v-2.1h2.325a1.125 1.125 0 0 1 1.186 1.05z"/><path d="m1044.589 3896.967a3.919 3.919 0 1 0 .005 0zm0 6.429a2.52 2.52 0 1 1 2.519-2.52v.009a2.519 2.519 0 0 1 -2.519 2.509z"/><path d="m1079.626 3912.716a1.531 1.531 0 0 1 -.6-.12 1.472 1.472 0 0 1 -.482-.327 1.584 1.584 0 0 1 -.325-.487 1.535 1.535 0 0 1 .807-2.016 1.5 1.5 0 0 1 .6-.121 1.462 1.462 0 0 1 .6.121 1.544 1.544 0 0 1 .483 2.494 1.566 1.566 0 0 1 -1.084.456zm0-.3a1.194 1.194 0 0 0 .479-.094 1.127 1.127 0 0 0 .379-.262 1.189 1.189 0 0 0 .251-.393 1.344 1.344 0 0 0 0-.971 1.189 1.189 0 0 0 -.251-.393 1.2 1.2 0 0 0 -1.333-.264 1.171 1.171 0 0 0 -.635.657 1.344 1.344 0 0 0 0 .971 1.171 1.171 0 0 0 .25.393 1.121 1.121 0 0 0 .38.262 1.2 1.2 0 0 0 .48.094zm-.532-2.016h.6a.7.7 0 0 1 .248.04.525.525 0 0 1 .168.11.417.417 0 0 1 .1.146.436.436 0 0 1 .03.168.5.5 0 0 1 -.075.27.454.454 0 0 1 -.229.182l.378.641h-.336l-.347-.6h-.247v.6h-.294zm.584.716a.266.266 0 0 0 .2-.066.25.25 0 0 0 .061-.168.22.22 0 0 0 -.066-.168.317.317 0 0 0 -.211-.057h-.273v.46z"/></g></svg>