<svg height="15.135" viewBox="0 0 104.447 15.135" width="104.447" xmlns="http://www.w3.org/2000/svg"><g transform="translate(-1353.801 -3900.331)"><path d="m1358.624 3910.365h-2.263v4.841h-2.56v-13.911h4.823c3.654 0 5.156 1.447 5.156 4.6 0 2.894-1.48 4.47-5.156 4.47zm0-6.881h-2.263v4.785h2.263c1.725 0 2.523-.482 2.523-2.393 0-1.817-.724-2.392-2.523-2.392z"/><path d="m1366.081 3915.206v-14.523l2.374-.13v14.653z"/><path d="m1380.344 3911.385c0 2.616-1.484 4.025-4.544 4.025s-4.526-1.465-4.526-4.025v-7.345h2.356v7.29c0 1.279.7 1.947 2.188 1.947q2.171 0 2.171-1.947v-7.29h2.355z"/><path d="m1385.909 3915.429a6.763 6.763 0 0 1 -3.469-.835l.278-2a6.256 6.256 0 0 0 3.191.872c1.354 0 1.929-.612 1.929-1.428 0-2.115-5.435-1.021-5.435-4.879 0-1.947 1.354-3.3 4.081-3.3a7.7 7.7 0 0 1 3.1.63l-.2 1.967a8.128 8.128 0 0 0 -2.93-.576c-1.113 0-1.781.446-1.781 1.188 0 1.966 5.36.871 5.36 4.748-.007 2.166-1.233 3.613-4.124 3.613z"/><path d="m1397.075 3910.365h-2.263v4.841h-2.56v-13.911h4.823c3.654 0 5.156 1.447 5.156 4.6 0 2.894-1.483 4.47-5.156 4.47zm0-6.881h-2.263v4.785h2.263c1.725 0 2.523-.482 2.523-2.393.002-1.817-.724-2.392-2.523-2.392z"/><path d="m1408.538 3915.466c-3.45 0-5.008-1.669-5.008-5.806 0-4.117 1.558-5.824 5.008-5.824 3.469 0 4.953 1.707 4.953 5.824 0 4.14-1.484 5.806-4.953 5.806zm0-1.985c1.836 0 2.523-.89 2.523-3.821s-.687-3.821-2.523-3.821c-1.855 0-2.56.891-2.56 3.821s.722 3.821 2.56 3.821z"/><path d="m1417.2 3902.556c-.945 0-1.409-.278-1.409-1.094 0-.723.464-1.131 1.409-1.131.965 0 1.41.408 1.41 1.131 0 .738-.445 1.094-1.41 1.094zm-1.2 12.65v-11.092l2.393-.129v11.221z"/><path d="m1428.181 3915.206v-7.215c0-1.41-.76-2-2.133-2a2.822 2.822 0 0 0 -2.226 1.02v8.2h-2.356v-11.111l1.688-.13.371 1.076a4.625 4.625 0 0 1 3.172-1.206c2.356 0 3.84 1.428 3.84 4.136v7.234z"/><path d="m1435.972 3905.858v6.214c0 .983.519 1.391 1.465 1.391a3.255 3.255 0 0 0 .909-.13l.148 1.762a4.765 4.765 0 0 1 -1.744.3c-2.095 0-3.134-1.206-3.134-3.265v-6.269h-1.391v-1.818h1.465l.427-2.615 1.855-.186v2.8h2.615v1.818z"/><path d="m1443.446 3915.429a6.758 6.758 0 0 1 -3.468-.835l.278-2a6.253 6.253 0 0 0 3.19.872c1.354 0 1.929-.612 1.929-1.428 0-2.115-5.434-1.021-5.434-4.879 0-1.947 1.354-3.3 4.08-3.3a7.7 7.7 0 0 1 3.1.63l-.2 1.967a8.133 8.133 0 0 0 -2.931-.576c-1.113 0-1.78.446-1.78 1.188 0 1.966 5.36.871 5.36 4.748-.006 2.166-1.23 3.613-4.124 3.613z"/><path d="m1455.076 3910.291v3.135h-2.541v-3.135h-3.135v-2.634h3.135v-3.134h2.541v3.134h3.172v2.634z"/></g></svg>