<svg viewBox="0 0 188 40" xmlns="http://www.w3.org/2000/svg" xmlns:xlink="http://www.w3.org/1999/xlink"><mask id="a" fill="#fff"><path d="m0 0h57.4374907v17.3093719h-57.4374907z" fill="#fff" fill-rule="evenodd"/></mask><mask id="b" fill="#fff"><path d="m0 0h78.8605048v22.6284068h-78.8605048z" fill="#fff" fill-rule="evenodd"/></mask><g fill="#fefefe" fill-rule="evenodd"><path d="m65.976625 40h.69675v-40h-.69675z"/><g transform="translate(0 12)"><path d="m55.7412752 1.71345581v-.45087255h.2607652c.1511374 0 .3207234.04274005.3207234.21615257 0 .19127926-.1880347.23471998-.3562017.23471998zm-.288793.89088491h.288793v-.66106954h.2103861l.3711025.66106954h.3494609l-.4317704-.69259909c.2263513-.04939629.370393-.19828582.370393-.42705022 0-.33981846-.2958887-.46383469-.6027756-.46383469h-.5555895zm-.6442852-.78543609c0-.65581461.5374956-1.18621169 1.1970364-1.18621169.6669913 0 1.2069704.53039708 1.2069704 1.18621169 0 .64880805-.5399791 1.187613-1.2069704 1.187613-.6595408 0-1.1970364-.53880495-1.1970364-1.187613zm-.2259965 0c0 .78018117.6382538 1.39010277 1.4230329 1.39010277.7936487 0 1.4322573-.6099216 1.4322573-1.39010277 0-.77913018-.6386086-1.4016636-1.4322573-1.4016636-.7847791 0-1.4230329.62253342-1.4230329 1.4016636zm-20.7448472 15.07112427h4.0519719v-16.47278787h-4.0519719zm-1.6139059-16.47278787h-4.4525215l-3.8639371 11.90415627-3.9331197-11.90415627h-4.5238327l6.3140656 16.47278787h4.0292658zm-14.3147677 16.47278787-6.8231786-16.47278787h-4.01330058l-7.072236 16.47278787h4.45713358l1.22329035-3.2331801h6.45846215l1.2953112 3.2331801zm-6.8788795-6.4201168h-4.19246575l2.1184068-5.65429903zm39.4316006-5.94191858c-1.0597356-.9388799-2.0293564-1.24857013-3.0660311-1.24857013-1.0363199 0-2.3330503.34997799-2.3330503 1.65319934 0 1.09162304.990553 1.46192007 2.5700451 1.95273004 2.2617389.72167634 5.1830187 1.65354967 5.1830187 4.93367373 0 3.7916034-3.0869632 5.4903454-6.3850221 5.4903454-2.3802364 0-4.7842431-.8604064-6.2441735-2.373124l2.4703512-2.5034462c.9841668 1.0460804 2.4536763 1.5960958 3.7738223 1.5960958 1.2239999 0 2.3085702-.4669876 2.3085702-1.791579 0-1.2566277-1.2733146-1.6770217-3.4640971-2.3776783-2.1187616-.67368136-4.2634223-1.7183604-4.2634223-4.69439947 0-3.65322371 3.345245-5.16524073 6.4542048-5.16524073 1.8860242 0 4.0065597.698905 5.4671996 2.02244538z" mask="url(#a)"/><path d="m93.7540647 16.9890317h11.1710393v-16.35367626z"/><path d="m79.8902257.37173338v16.61712312l25.0348783-16.61712312z"/><path d="m5.21211092 6.8275486c.50733909 0 1.3279512-.02977791 1.81010073-.2585423.72943299-.39482001.96217037-1.01349982.96217037-1.95273005 0-1.01034687-.61661213-1.60835731-1.1345947-1.84798188-.39558258-.19723484-.90682428-.28096331-1.70437553-.28096331h-2.33482417v4.34021754zm.4562504 7.2983899c.72623995 0 1.2914086-.0847795 1.7334677-.2599437.90575993-.4018265 1.44680337-1.1329617 1.46596163-2.2014631 0-1.0194554-.58006952-1.80103789-1.46738076-2.17623952-.64038256-.26309657-1.16475122-.2820143-1.95449725-.2820143h-2.63532502v4.91966062zm-5.66836132 2.4911846v-16.6171231h5.83972131c2.27238244 0 5.01804489 1.18235808 5.01804489 4.30623569 0 1.86619895-.88482781 3.06397148-1.68095992 3.51028975 2.14111292.81171072 2.56011112 2.82084366 2.56011112 4.00495336 0 2.655839-2.21774593 4.7956443-5.74499437 4.7956443zm24.5360538-6.1475613v-6.37667605h-2.7644658v6.37667605c0 2.2669745-1.17504 3.7306463-3.0149424 3.7306463-1.8349355 0-3.0096207-1.4636718-3.0096207-3.7306463v-6.37667605h-2.7694328v6.37667605c0 3.8049159 2.5686259 6.237946 5.7790535 6.237946 3.2161041 0 5.7794082-2.4330301 5.7794082-6.237946zm7.6838812-4.12826891c-1.9892659 0-3.5449876 1.73482584-3.5449876 3.95450611 0 2.1538185 1.5851686 3.9012561 3.5449876 3.9012561 1.9431442 0 3.5857876-1.7845724 3.5857876-3.9012561 0-2.1804435-1.6100034-3.95450611-3.5857876-3.95450611zm0 10.36621491c-3.5371823 0-6.3158395-2.7889637-6.3158395-6.4351808 0-3.65917933 2.7786572-6.46075489 6.3158395-6.46075489 1.2896347 0 2.5906224.46208305 3.5857876 1.35016534v-5.16173745h2.7619824v16.4521185h-2.6935094v-1.1522298c-.9887791.9259177-2.3135372 1.4076191-3.6542606 1.4076191zm14.1930772-2.513956c-1.9889111 0-3.5449875-1.7502403-3.5449875-3.9678185 0-2.15557015 1.5858781-3.90335813 3.5449875-3.90335813 1.9427894 0 3.5854328 1.78457245 3.5854328 3.90335813 0 2.1783415-1.6100034 3.9678185-3.5854328 3.9678185zm3.6539058-10.10066605v1.1270062c-.9884242-.92556742-2.3135372-1.40831984-3.6539058-1.40831984-3.5371823 0-6.3105178 2.78896374-6.3105178 6.43693249 0 3.6581283 2.7733355 6.4597039 6.3105178 6.4597039 1.2892799 0 2.5902677-.4624334 3.5854328-1.3505157 0 0 .5591373 4.7175212-3.653551 4.7175212-1.7763964 0-3.0298433-1.2597807-3.5928833-2.2091704.0010644 0-2.2085215 1.5326864-2.2085215 1.5326864 1.0852799 2.001776 3.3835615 3.2296768 5.8014048 3.2296768 1.6266781 0 3.2263928-.4557772 4.3634709-1.4401998 1.3357565-1.1637906 2.0680277-2.7826578 2.0680277-4.9645026v-12.13081865zm7.0892656 5.01424922c.1000487-.73954308 1.0079373-2.80262655 3.2654189-2.80262655 2.1893633 0 3.1490502 1.99932371 3.2349076 2.80262655zm7.617182-3.54602324c-1.1526886-1.19391891-2.7190537-1.7491893-4.3553109-1.7491893-3.4967372 0-6.1902465 2.86848828-6.1902465 6.47196537 0 3.6381596 2.6346154 6.42362 6.2565908 6.42362 1.905892 0 3.8334258-.9760147 5.0155614-2.468063l-2.1570781-1.4927489c-.7092104.9627022-1.9144068 1.468226-2.8584833 1.468226-1.4776695 0-2.9815928-1.0422268-3.3509215-2.8338058h9.2662115s.8461565-3.25805338-1.6263234-5.82000437zm7.9496134 8.65065717c-1.4045843 0-2.057739-.6761337-2.057739-2.1331491v-5.57302292h2.6995407v-2.41271113h-2.6995407v-3.45213525h-2.7619824v11.4378693c0 2.8951132 1.6795407 4.628888 4.3851127 4.628888.5641043 0 1.1225321-.0802251 1.1225321-.0802251v-2.4491453c-.3469774.0290772-.5435269.0336315-.6879234.0336315zm4.3067057-11.9553042c.2032905 0 .437447-.05430089.437447-.29392546 0-.21615257-.2096765-.27045346-.3987757-.27045346h-.3292382v.56437892zm-.6496069-.86566128h.7045982c.3750052 0 .7436243.15484512.7436243.57944304 0 .28621824-.1802295.47189225-.4615721.53355003l.5385599.86496062h-.4381564l-.4686678-.82677483h-.2593461v.82677483h-.35904zm.6964382 2.48102516c.8287721 0 1.5017947-.6729807 1.5017947-1.48399076 0-.81906761-.6730226-1.48364043-1.5017947-1.48364043s-1.5032138.66457282-1.5032138 1.48364043c0 .81101006.6744417 1.48399076 1.5032138 1.48399076zm0-3.23808465c.9852313 0 1.7842016.78053149 1.7842016 1.75409389 0 .97321207-.7989703 1.73832912-1.7842016 1.73832912-.9859408 0-1.7845564-.76511705-1.7845564-1.73832912 0-.9735624.7986156-1.75409389 1.7845564-1.75409389z" mask="url(#b)" transform="translate(109.139495 .371593)"/></g></g></svg>