<svg viewBox="0 0 261.06 84.64" xmlns="http://www.w3.org/2000/svg"><g fill="#fff"><path d="m42.32 0a42.32 42.32 0 1 0 42.31 42.31 42.31 42.31 0 0 0 -42.31-42.31zm-13.8 54.93h-5.44l-9-25.23h5.53l6.39 18.68 6.15-18.68h5.41zm17.28 0h-5.09v-25.23h5.09zm24-13.56a6.9 6.9 0 0 1 -2.14 2.49 7.34 7.34 0 0 1 -2.65 1.19 28 28 0 0 1 -5.28.37h-3.27v9.51h-5.1v-25.23h8.18a29.8 29.8 0 0 1 6.06.38 6.64 6.64 0 0 1 3.63 2.47 7.87 7.87 0 0 1 1.46 4.91 8.25 8.25 0 0 1 -.84 3.91z"/><path d="m62.59 34.14a25.42 25.42 0 0 0 -3.67-.14h-2.46v7.16h2.79a12.88 12.88 0 0 0 4-.4 3.31 3.31 0 0 0 1.6-1.24 3.4 3.4 0 0 0 .57-2 3.25 3.25 0 0 0 -.81-2.27 3.51 3.51 0 0 0 -2.02-1.11z"/><path d="m106.25 27.47-14 29.69h4.54l4.43-9.36h11.47l4.47 9.36h4.44l-13.87-29.69zm4.61 16.35h-7.78l3.9-8.23z"/><path d="m140.22 50.1a8.44 8.44 0 0 1 -7 3.4 8.56 8.56 0 0 1 -4.19-1 7.57 7.57 0 0 1 -2.92-2.86 7.81 7.81 0 0 1 -1.07-4 7.26 7.26 0 0 1 2.32-5.46 8 8 0 0 1 5.84-2.26 8.17 8.17 0 0 1 7 3.39l.34.44 3.08-1.92-.3-.51a9.58 9.58 0 0 0 -2.42-2.74 11.74 11.74 0 0 0 -3.41-1.73 13.49 13.49 0 0 0 -4.15-.65 12.74 12.74 0 0 0 -6.2 1.52 11.26 11.26 0 0 0 -4.38 4.28 11.53 11.53 0 0 0 -1.59 5.88 10.77 10.77 0 0 0 3.42 8 11.84 11.84 0 0 0 8.55 3.28 13.3 13.3 0 0 0 6-1.29 10.61 10.61 0 0 0 4.22-3.67l.34-.51-3.08-2z"/><path d="m164.61 50.1a8.44 8.44 0 0 1 -7 3.4 8.56 8.56 0 0 1 -4.19-1 7.44 7.44 0 0 1 -2.92-2.86 7.81 7.81 0 0 1 -1.07-4 7.29 7.29 0 0 1 2.31-5.46 8 8 0 0 1 5.85-2.26 8.18 8.18 0 0 1 7 3.39l.34.44 3.07-1.9-.3-.51a9.58 9.58 0 0 0 -2.42-2.74 11.87 11.87 0 0 0 -3.41-1.73 13.49 13.49 0 0 0 -4.15-.65 12.74 12.74 0 0 0 -6.2 1.52 11.26 11.26 0 0 0 -4.37 4.26 11.53 11.53 0 0 0 -1.59 5.88 10.8 10.8 0 0 0 3.41 8 11.88 11.88 0 0 0 8.56 3.28 13.3 13.3 0 0 0 5.95-1.29 10.61 10.61 0 0 0 4.22-3.67l.34-.51-3.08-2z"/><path d="m192.46 45.89a11.85 11.85 0 0 0 -2.46-7.44 10.8 10.8 0 0 0 -8.91-4.23 10.51 10.51 0 0 0 -8.68 4.14 11.94 11.94 0 0 0 .46 15.28 10.52 10.52 0 0 0 8.37 3.52 12.12 12.12 0 0 0 4.3-.73 10.7 10.7 0 0 0 3.46-2.15 12.85 12.85 0 0 0 2.68-3.66l.27-.54-3.28-1.72-.3.49a11.65 11.65 0 0 1 -2.14 2.79 7.45 7.45 0 0 1 -2.32 1.36 8.22 8.22 0 0 1 -2.86.52 6.72 6.72 0 0 1 -5.05-2.14 7.69 7.69 0 0 1 -2.1-4.87h18.57zm-18.11-2.89a7.64 7.64 0 0 1 2-3.21 6.94 6.94 0 0 1 4.82-1.8 7.68 7.68 0 0 1 3.27.72 6.87 6.87 0 0 1 2.47 1.88 7.55 7.55 0 0 1 1.21 2.41z"/><path d="m205.84 39.82.44.42 2.55-2.64-.43-.42c-2-2-4.12-3-6.17-3a6.23 6.23 0 0 0 -4.49 1.82 5.81 5.81 0 0 0 -1.74 4.29 6 6 0 0 0 1.12 3.57 11.16 11.16 0 0 0 4 3 11.11 11.11 0 0 1 3.14 2.14 2.48 2.48 0 0 1 .6 1.64 2.55 2.55 0 0 1 -.93 2 3.23 3.23 0 0 1 -2.31.87 5.24 5.24 0 0 1 -3.87-2.09l-.45-.52-2.46 2.79.31.4a7.91 7.91 0 0 0 2.91 2.32 8.39 8.39 0 0 0 3.67.84 6.7 6.7 0 0 0 4.9-1.94 6.43 6.43 0 0 0 2-4.74 6 6 0 0 0 -1.17-3.62 12.27 12.27 0 0 0 -4.24-3.13 9.71 9.71 0 0 1 -3-2 2.34 2.34 0 0 1 -.62-1.53 2.05 2.05 0 0 1 .73-1.55c1.3-1.37 3.43-.94 5.51 1.08z"/><path d="m224.09 46.86a12.35 12.35 0 0 0 -4.25-3.14 9.6 9.6 0 0 1 -3-2 2.34 2.34 0 0 1 -.62-1.53 2 2 0 0 1 .72-1.55c1.35-1.24 3.48-.81 5.56 1.21l.43.42 2.56-2.64-.44-.42c-2-2-4.11-3-6.17-3a6.19 6.19 0 0 0 -4.48 1.79 5.81 5.81 0 0 0 -1.79 4.34 6 6 0 0 0 1.12 3.57 11.11 11.11 0 0 0 4 3 10.93 10.93 0 0 1 3.18 2.09 2.43 2.43 0 0 1 .6 1.64 2.57 2.57 0 0 1 -.92 2 3.26 3.26 0 0 1 -2.31.87 5.29 5.29 0 0 1 -3.87-2.09l-.46-.52-2.45 2.7.3.4a8.08 8.08 0 0 0 2.91 2.32 8.43 8.43 0 0 0 3.68.84 6.73 6.73 0 0 0 4.9-1.94 6.47 6.47 0 0 0 2-4.74 6.06 6.06 0 0 0 -1.17-3.61z"/><path d="m229 34.49v.51h-1.08v2.59h-.54v-2.59h-1.08v-.48zm4.27 0v3.07h-.54v-2.56l-1.14 2.53h-.36l-1.09-2.53v2.53h-.53v-3.04h.87l1 2.12 1-2.12z"/></g><path d="m260.25 42.95.63-.64-.63-.63" fill="none" stroke="#e5007e" stroke-miterlimit="10" stroke-width=".25"/></svg>