<svg enable-background="new 0 0 171.2 20" height="20" viewBox="0 0 171.2 20" width="171.2" xmlns="http://www.w3.org/2000/svg"><path d="m89.8 7.7h4.5v-.7h-5v6.4h5.2v-.6h-4.6v-2.5h4.3v-.5h-4.3zm17.4-.7h-1.1l-2.8 5.6-2.8-5.6h-1.1v6.4h.7v-5.5l2.8 5.5h.7l2.8-5.5v5.5h.7zm7.1.7v-.7h-5v6.4h5.2v-.6h-4.5v-2.5h4.2v-.5h-4.2v-2.1zm9.5-.7h-.9l-2.8 5.6-2.9-5.6h-.9v6.4h.7v-5.5l2.8 5.5h.6l2.8-5.5v5.5h.7zm5.8 0h-3.6v6.4h3.5c1.4 0 2.1-.6 2.1-1.8 0-.9-.5-1.5-1.3-1.6.7-.2 1.1-.7 1.1-1.4-.1-1-.6-1.6-1.8-1.6zm-.1.7c.8-.1 1.2.2 1.3.9-.1.8-.6 1.2-1.5 1.2h-2.7v-2.1zm.1 2.7c.8 0 1.3.5 1.3 1.3s-.5 1.2-1.5 1.2h-2.8v-2.5zm16.5-1.7c0-1.2-.7-1.8-2-1.8h-3.5v6.4h.6v-2.8h2.7c.9 0 1.5.5 1.5 1.5 0 .5 0 .9.1 1.3h.7l-.2-1.3c0-1.2-.4-1.8-1.1-1.8.9-.1 1.2-.6 1.2-1.5zm-2-1c.9-.1 1.3.2 1.3 1.1s-.5 1.3-1.3 1.3h-2.9v-2.4zm-5.5 0v-.7h-5v6.4h5.2v-.6h-4.6v-2.5h4.3v-.5h-4.3v-2.1z" fill="#fff"/><path d="m156.2 7.3-3.3.1 3.2 1.9 3.3-1.6z" fill="#d9d9d9"/><path d="m156.1 9.3-.1 3.8 1.9-2.6 1.5-2.8z" fill="#262626"/><path d="m156 13.1.1-3.8-3.2-1.9 1.4 2.9z" fill="#9e9e9e"/><path d="m164.7 4.6v3.2l.5 3.2 1.6-3.3z" fill="#d9d9d9"/><path d="m170.4 7.5-3.6.2-1.6 3.3 2.7-1.6z" fill="#262626"/><path d="m166.8 7.7 3.6-.2-2.8-1.6-2.9-1.2zm-3.3-.5-.7-3.2-1.1-2.9-.9 3.5z" fill="#9e9e9e"/><path d="m160.3 6.6 3.2.6-2.7-2.6-3.5 1.1z" fill="#262626"/><path d="m161.8 1.1-2.5 2.1-2 2.5 3.5-1.1z" fill="#d9d9d9"/><path d="m167.8 14.6.1-3.2-2.2 2.9 1.3 3.4z" fill="#9e9e9e"/><path d="m165.7 14.3 2.2-2.9-3.1.9-2.8 1.4z" fill="#d9d9d9"/><path d="m162.1 13.7 2.3 2.2 2.6 1.8-1.3-3.4zm.4 2.8-3.4-1.2-2.8 2.3 3.2-.4z" fill="#262626"/><path d="m162.5 16.5-1.8-2.6-2.3-2.2.7 3.6z" fill="#9e9e9e"/><path d="m156.3 17.6 2.8-2.3-.7-3.6z" fill="#d9d9d9"/><path d="m3.9 7h-.8l-2.9 6.4h.7l.9-1.9h3.4l.8 1.9h.7zm.9 4h-2.8l1.4-3.3zm11.2-2.1h.6c-.1-1.3-.9-2-2.7-2s-2.6.6-2.6 1.9c0 .8.8 1.4 2.3 1.8 1.6.1 2.3.6 2.5 1.2-.1.9-.7 1.3-2 1.3-1.4 0-2.2-.5-2.2-1.6h-.7c.1 1.5 1.1 2.3 2.9 2.3s2.7-.7 2.7-2c0-.9-.8-1.5-2.3-1.8-1.6-.2-2.3-.7-2.3-1.3 0-.8.6-1.2 1.8-1.2 1.2-.1 1.9.4 2 1.4zm5-1.2h2.5v-.7h-5.6v.7h2.5v5.7h.6zm6.7-.7h-.8l-2.9 6.4h.7l.9-1.9h3.4l.8 1.9h.7zm.9 4h-2.8l1.4-3.3zm7-4h-3.4v6.4h.6v-2.8h2.6c1.1 0 1.5.5 1.5 1.5l.2 1.3h.7c-.1-.1-.2-.6-.2-1.3 0-1.2-.5-1.8-1.1-1.8.8-.2 1.2-.8 1.2-1.6 0-1.1-.7-1.7-2.1-1.7zm.1.7c.8-.1 1.3.2 1.3 1s-.5 1.3-1.4 1.3h-2.8v-2.3zm10.3-.7h-.8l-2.9 6.4h.7l.8-1.9h3.4l.9 1.9h.7zm.9 4h-2.8l1.4-3.3zm4-4h-.7v6.4h4.8v-.6h-4.1zm6.2 0h-.7v6.4h4.8v-.6h-4.1zm6.2 0h-.6v6.4h.6zm23.8 2.2c-.1-1.5-1.2-2.3-3-2.3-1.2 0-2 .5-2.7 1.2-.5.6-.8 1.3-.8 2.2 0 2.2 1.2 3.3 3.5 3.4 1.9 0 2.9-.9 3.2-2.6h-.7c-.2 1.3-1.1 1.9-2.5 1.9-1.9 0-2.7-.9-2.7-2.7 0-1.9.8-2.8 2.7-2.8 1.4 0 2.2.6 2.5 1.8zm-13.4-2.2h-.8v6.4h.7v-5.4l4.5 5.4h.8v-6.4h-.7v5.5zm-5.2 0h-.7l-2.9 6.4h.7l.8-1.9h3.4l.8 1.9h.8zm1.1 4h-2.8l1.4-3.3z" fill="#fff"/></svg>